<?xml version="1.0" encoding="utf-8"?>
<!-- Generator: Adobe Illustrator 16.0.0, SVG Export Plug-In . SVG Version: 6.00 Build 0)  -->
<!DOCTYPE svg PUBLIC "-//W3C//DTD SVG 1.1//EN" "http://www.w3.org/Graphics/SVG/1.1/DTD/svg11.dtd">
<svg version="1.1" id="Layer_1" xmlns="http://www.w3.org/2000/svg" xmlns:xlink="http://www.w3.org/1999/xlink" x="0px" y="0px"
	 width="545.563px" height="523.5px" viewBox="0 0 545.563 523.5" enable-background="new 0 0 545.563 523.5" xml:space="preserve">
<g>
	<path fill="#3F3D56" d="M491.304,507.168c2.066,0.129,3.208-2.438,1.645-3.934l-0.155-0.618l0.062-0.148
		c2.09-4.981,9.17-4.947,11.241,0.042c1.839,4.428,4.18,8.863,4.756,13.546c0.259,2.066,0.143,4.172-0.316,6.2
		c4.309-9.41,6.575-19.687,6.575-30.021c0-2.597-0.142-5.193-0.433-7.783c-0.238-2.118-0.568-4.224-0.994-6.311
		c-2.306-11.277-7.299-22.019-14.5-30.989c-3.463-1.893-6.35-4.851-8.094-8.396c-0.626-1.279-1.117-2.654-1.35-4.057
		c0.395,0.052,1.485-5.948,1.188-6.316c0.549-0.833,1.532-1.248,2.132-2.061c2.982-4.043,7.091-3.338,9.236,2.157
		c4.582,2.313,4.626,6.148,1.814,9.837c-1.789,2.347-2.034,5.522-3.604,8.035c0.162,0.206,0.33,0.406,0.491,0.613
		c2.961,3.798,5.522,7.88,7.682,12.169c-0.61-4.767,0.29-10.509,1.826-14.21c1.748-4.217,5.024-7.77,7.91-11.415
		c3.466-4.379,10.573-2.468,11.184,3.083l0.018,0.161c-0.429,0.242-0.849,0.499-1.259,0.771c-2.339,1.547-1.53,5.174,1.241,5.602
		l0.063,0.01c-0.154,1.544-0.42,3.074-0.807,4.579c3.701,14.315-4.29,19.53-15.702,19.765c-0.251,0.129-0.497,0.258-0.749,0.381
		c1.156,3.255,2.08,6.595,2.765,9.979c0.613,2.99,1.04,6.014,1.278,9.049c0.298,3.83,0.271,7.68-0.051,11.504l0.019-0.136
		c0.82-4.211,3.107-8.145,6.427-10.87c4.946-4.063,11.933-5.559,17.269-8.824c2.568-1.572,5.859,0.459,5.411,3.437l-0.021,0.143
		c-0.795,0.323-1.569,0.698-2.319,1.117c-0.429,0.242-0.849,0.499-1.259,0.771c-2.339,1.547-1.53,5.174,1.241,5.602l0.063,0.01
		l0.129,0.02c-1.363,3.235-3.262,6.239-5.639,8.829c-2.314,12.497-12.256,13.683-22.891,10.044h-0.006
		c-1.163,5.063-2.861,10.011-5.045,14.726h-18.02c-0.065-0.2-0.123-0.407-0.182-0.606c1.667,0.103,3.346,0.006,4.986-0.298
		c-1.337-1.641-2.674-3.294-4.011-4.935l-0.084-0.097c-0.678-0.84-1.362-1.673-2.041-2.513v-0.001
		C490.382,512.23,490.692,509.661,491.304,507.168z"/>
	<path fill="#CCCCCC" d="M159.753,522.311c0,0.66,0.53,1.189,1.189,1.189h383.29c0.66,0,1.19-0.529,1.19-1.189
		s-0.53-1.189-1.19-1.189h-383.29C160.283,521.121,159.753,521.65,159.753,522.311z"/>
	<path fill="#3F3D56" d="M217.913,522.994H41.489c-21.512,0-39.013-17.502-39.013-39.015V104.831
		c0-21.512,17.501-39.014,39.013-39.014h176.425c21.512,0,39.014,17.501,39.014,39.014v379.148
		C256.927,505.492,239.425,522.994,217.913,522.994"/>
	<path fill="#3F3D56" d="M256.927,205.281c-0.91,0-1.65,0.74-1.65,1.651v52.814c0,0.91,0.74,1.65,1.65,1.65s1.65-0.74,1.65-1.65
		v-52.814C258.577,206.021,257.837,205.281,256.927,205.281z"/>
	<path fill="#FFFFFF" d="M253.213,104.831v379.143c0,18.724-14.573,34.04-33.001,35.229h-0.008
		c-0.272,0.017-0.545,0.033-0.825,0.042c-0.487,0.024-0.974,0.032-1.469,0.032c0,0-1.815-0.132-5.133-0.38
		c-3.351-0.247-8.228-0.618-14.31-1.105c-1.824-0.141-3.747-0.297-5.776-0.462c-4.044-0.33-8.483-0.693-13.245-1.106
		c-1.898-0.156-3.862-0.33-5.867-0.503c-10.25-0.883-21.729-1.914-33.835-3.086c-2.046-0.19-4.109-0.388-6.188-0.595
		c-0.545-0.058-1.098-0.107-1.65-0.165c-8.633-0.85-125.716-23.478-125.716-27.9V104.831c0-19.5,15.803-35.303,35.303-35.303h21.076
		c3.367,0,6.074,2.625,6.363,5.983c0.024,0.223,0.049,0.445,0.09,0.668c0.611,3.375,3.706,5.727,7.139,5.727h107.082
		c3.433,0,6.527-2.352,7.138-5.727c0.042-0.223,0.066-0.446,0.091-0.668c0.289-3.358,2.996-5.983,6.363-5.983h21.076
		C237.41,69.528,253.213,85.331,253.213,104.831"/>
	<path fill="#3F3D56" d="M1.651,165.67c-0.91,0-1.65,0.74-1.65,1.65v13.204c0,0.911,0.74,1.651,1.65,1.651s1.65-0.74,1.65-1.651
		V167.32C3.301,166.41,2.561,165.67,1.651,165.67z"/>
	<path fill="#3F3D56" d="M1.651,205.281c-0.91,0-1.65,0.74-1.65,1.651v25.582c0,0.91,0.74,1.65,1.65,1.65s1.65-0.74,1.65-1.65
		v-25.582C3.301,206.021,2.561,205.281,1.651,205.281z"/>
	<path fill="#3F3D56" d="M1.651,241.591c-0.91,0-1.65,0.74-1.65,1.65v25.582c0,0.91,0.74,1.65,1.65,1.65s1.65-0.74,1.65-1.65
		v-25.582C3.301,242.331,2.561,241.591,1.651,241.591z"/>
	<path fill="#E6E6E6" d="M30.431,75.308h31.563c0.171,0,0.311,0.139,0.311,0.311v3.505c0,0.171-0.14,0.31-0.311,0.31H30.431
		c-0.171,0-0.311-0.139-0.311-0.31v-3.505C30.12,75.446,30.26,75.308,30.431,75.308z"/>
	<circle fill="#E6E6E6" cx="202.049" cy="76.133" r="3.301"/>
	<circle fill="#E6E6E6" cx="211.126" cy="76.133" r="3.301"/>
	<circle fill="#E6E6E6" cx="220.204" cy="76.133" r="3.301"/>
	<path fill="#D3D3D3" d="M199.288,290.516h-140c-2.205,0-4,1.795-4,4s1.795,4,4,4h140c2.206,0,4-1.795,4-4
		S201.494,290.516,199.288,290.516"/>
	<circle fill="#00DDC2" cx="129.79" cy="395.516" r="58"/>
	<path fill="#FFFFFF" d="M139.009,376.578c-4.896,0.201-10.429,0.537-14.047,4.293c-3.144,3.263-3.832,8.105-0.645,11.589
		c3.195,3.493,8.164,3.966,11.849,6.69c4.325,3.199,3.691,9.529-0.494,12.562c-4.937,3.576-11.31,1.909-15.822-1.493
		c-1.156-0.872-2.278,1.08-1.135,1.942c4.043,3.048,9.318,4.745,14.317,3.286c4.511-1.316,8.008-4.994,8.364-9.779
		c0.17-2.283-0.479-4.602-1.899-6.404c-1.499-1.903-3.658-3.074-5.841-4.027c-3.758-1.641-10.228-3.763-9.135-9.104
		c1.324-6.475,9.204-7.088,14.487-7.305C140.451,378.769,140.459,376.519,139.009,376.578z"/>
	<path fill="#FFFFFF" d="M129.928,373.516l-0.216,49.394c-0.006,1.448,2.244,1.45,2.25,0l0.216-49.394
		C132.184,372.068,129.934,372.066,129.928,373.516z"/>
	<path fill="#FFFFFF" d="M437.085,0h-285.96c-10.489,0-19.02,8.53-19.02,19.021V214.98c0,10.49,8.53,19.02,19.02,19.02h285.96
		c10.49,0,19.021-8.53,19.021-19.02V19.021C456.106,8.53,447.575,0,437.085,0"/>
	<circle fill="#3F3D56" cx="292.79" cy="84.516" r="32"/>
	<path fill="#00DDC2" d="M298.861,70.236c-3.961,0.163-8.42,0.415-11.416,3.362c-2.482,2.442-3.351,6.243-1.069,9.118
		c2.401,3.027,6.395,3.602,9.529,5.536c1.948,1.202,3.239,3.023,3.281,5.364c0.039,2.191-0.972,4.239-2.663,5.612
		c-4.147,3.37-9.805,1.975-13.729-0.973c-0.772-0.58-1.521,0.722-0.757,1.295c3.25,2.441,7.435,3.858,11.479,2.808
		c3.723-0.967,6.721-3.895,7.124-7.808c0.425-4.125-2.282-6.933-5.794-8.543c-3.209-1.473-8.839-3.042-8.309-7.616
		c0.675-5.817,7.796-6.469,12.323-6.656C299.823,71.696,299.827,70.196,298.861,70.236z"/>
	<path fill="#00DDC2" d="M291.978,67.516l-0.181,41.158c-0.004,0.965,1.496,0.967,1.5,0l0.181-41.158
		C293.482,66.55,291.982,66.549,291.978,67.516z"/>
	<path fill="#3F3D56" d="M437.085,0h-285.96c-10.489,0-19.02,8.53-19.02,19.02v195.96c0,10.49,8.53,19.02,19.02,19.02h285.96
		c10.49,0,19.021-8.53,19.021-19.02V19.02C456.106,8.53,447.575,0,437.085,0z M454.106,214.98c0,9.39-7.63,17.02-17.021,17.02
		h-285.96c-9.39,0-17.02-7.63-17.02-17.02V19.02c0-9.39,7.63-17.02,17.02-17.02h285.96c9.391,0,17.021,7.63,17.021,17.02V214.98z"/>
	<path fill="#D3D3D3" d="M261.136,19.35h-28.061c-1.41,0-2.56,1.15-2.56,2.56c0,1.42,1.149,2.57,2.56,2.57h28.061
		c1.41,0,2.56-1.15,2.56-2.57C263.696,20.5,262.546,19.35,261.136,19.35"/>
	<path fill="#D3D3D3" d="M308.135,19.35h-28.06c-1.41,0-2.56,1.15-2.56,2.56c0,1.42,1.149,2.57,2.56,2.57h28.06
		c1.41,0,2.561-1.15,2.561-2.57C310.696,20.5,309.545,19.35,308.135,19.35"/>
	<path fill="#D3D3D3" d="M355.135,19.35h-28.06c-1.41,0-2.56,1.15-2.56,2.56c0,1.42,1.149,2.57,2.56,2.57h28.06
		c1.41,0,2.561-1.15,2.561-2.57C357.696,20.5,356.545,19.35,355.135,19.35"/>
	<path fill="#3F3D56" d="M401.415,134.516h-214.62c-8.93,0-16.189,7.26-16.189,16.19v14.62c0,8.93,7.26,16.19,16.189,16.19h214.62
		c8.93,0,16.19-7.26,16.19-16.19v-14.62C417.606,141.776,410.345,134.516,401.415,134.516z"/>
	<path fill="#3F3D56" d="M73.179,211.492l-8.229-3.898c3.375,4.711,6.284,12.068,7.841,17.922
		c2.637-5.453,6.887-12.126,11.094-16.112l-8.697,2.238c5.359-26.268,25.519-45.126,48.604-45.126v-2
		C99.678,164.516,78.652,184.163,73.179,211.492z"/>
	<path fill="#D3D3D3" d="M111.059,243.516h-52c-2.206,0-4,1.795-4,4c0,2.206,1.794,4,4,4h52c2.205,0,4-1.794,4-4
		C115.059,245.311,113.264,243.516,111.059,243.516"/>
	<polygon fill="#FFB6B6" points="456.979,238.488 456.454,279.327 446.292,315.732 438.169,312.702 441.776,279.333 
		441.302,234.176 	"/>
	
		<ellipse transform="matrix(-0.9838 -0.1792 0.1792 -0.9838 816.6948 714.9128)" fill="#FFB6B6" cx="440.63" cy="320.578" rx="5.72" ry="9.634"/>
	<path fill="#E6E6E6" d="M444.648,189.861c0,0,17.407,0.24,17.393,9.486c-0.009,5.221-1.13,52.624-4.25,81.42
		c-2.406,22.207-7,28-7,28l-11-25L444.648,189.861z"/>
	<path fill="#FFB6B6" d="M444.2,273.299h-58.788c4.928-10.996,7.957-21.467,3.222-29.797l55.566-3.221
		C441.423,251.525,441.084,262.561,444.2,273.299z"/>
	<path fill="#E6E6E6" d="M436.952,175.856l-23.354-1.61l-9.664,12.08l-4.899,0.891c-7.344,1.335-12.573,7.889-12.245,15.346
		l1.906,43.313l55.82,4.07l13.374-56.402l-16.106-6.412L436.952,175.856z"/>
	<path fill="#FFB6B6" d="M294.531,188.922c1.657,1.49,2.84,3.231,3.465,4.92l16.681,13.203l-6.515,7.754l-16.22-14.228
		c-1.745-0.443-3.602-1.436-5.258-2.927c-3.786-3.405-5.098-8.118-2.931-10.527S290.745,185.517,294.531,188.922z"/>
	<path fill="#E6E6E6" d="M412.467,200.037L412.467,200.037l-63.916,43.16l-45.816-31.884l6.878-12.46l36.061,20.957l33.255-25.534
		C390.77,183.151,405.612,185.307,412.467,200.037z"/>
	<circle fill="#FFB6B6" cx="423.891" cy="153.302" r="17.326"/>
	<path fill="#2F2E41" d="M447.441,149.046v3.36l-19.54-5.5l-14.65,3.07c-0.17-2.23-0.83-4.42-1.93-6.36
		c0.766,3.112,0.851,5.519,0.04,6.76l-1.97,0.41c-0.32-0.87-0.94-1.63-1.75-2.09l-0.271-0.06c-0.14,0.05-0.149,0.23-0.149,0.37
		c0.02,0.74,0.039,1.48,0.069,2.22l-5.66,1.18v-3.36c-5.43-12.218,8.882-22.791,22.91-22.9c6.33-0.049,12.05,2.561,16.2,6.7
		C444.88,136.996,447.441,142.716,447.441,149.046z"/>
	<path fill="#2F2E41" d="M458.433,188.444l-1.476-0.123c0.105-0.482,0.21-0.959,0.307-1.441c0.817-4.049-0.982-9.205-1.115-13.095
		c-0.694,4.11,0.493,9.168-0.735,13.071c-0.138,0.434-5.477,3.232-5.623,3.66c-5.909-2.161-12.063-9.066-19.031-5.033
		c-4.121,2.385-8.823,1.339-13.503,0.248c-1.158-0.271-1.319-5.99-2.466-6.215c-2.053-0.402-5.067,4.797-7,5l8-31
		c0-16.864-1.562-34.557,19.801-28.594c5.372,1.5,10.689,2.675,14.655,7.11c3.966,4.44,6.789,10.646,7.789,17.713
		C458.639,154.007,462.403,168.483,458.433,188.444z"/>
	<polygon fill="#FFB7B7" points="444.638,500.181 435.102,500.405 429.785,457.562 443.86,457.229 	"/>
	<path fill="#2F2E41" d="M411.919,520.076L411.919,520.076c0,1.611,1.144,2.918,2.554,2.918h18.93c0,0,1.862-7.488,9.457-10.711
		l0.524,10.711h9.765l-1.183-17.223c0,0,2.612-9.214-2.813-13.924c-5.425-4.709-1.03-4.054-1.03-4.054l-2.134-10.659l-14.756,1.735
		l-0.109,16.732l-7.16,16.608l-10.504,5.188C412.525,517.861,411.919,518.913,411.919,520.076z"/>
	<polygon fill="#FFB7B7" points="415.624,493.198 406.457,495.836 390.443,455.743 403.971,451.85 	"/>
	<path fill="#2F2E41" d="M389.026,520.746L389.026,520.746c0.408,1.559,1.846,2.531,3.21,2.174l18.31-4.804
		c0,0-0.099-7.716,6.431-12.76l3.225,10.227l9.445-2.478l-5.515-16.358c0,0,0.188-9.575-6.254-12.754s-2.026-3.66-2.026-3.66
		l-4.769-9.769l-13.833,5.423l4.142,16.212l-2.713,17.882l-8.843,7.685C389.048,518.449,388.73,519.62,389.026,520.746z"/>
	<path fill="#2F2E41" d="M438.79,270.768l6,2c9.381,17.326,13.358,40.334,12.831,68.078l-10.657,124.611h-17.437l-12.761-138.822
		l-22.5,52.105l16.462,86.717l-16.462,1.679l-33.157-90.172l23.092-104.802L438.79,270.768z"/>
	<g>
		
			<image overflow="visible" width="892" height="349" xlink:href="EABCC7F5.png"  transform="matrix(0.24 0 0 0.24 191.5139 114.9092)">
		</image>
	</g>
</g>
</svg>
